<svg xmlns="http://www.w3.org/2000/svg" width="23.354" height="24.159" viewBox="0 0 23.354 24.159">
  <g id="Page-1" transform="translate(0 0)">
    <g id="_054---Cash" data-name="054---Cash" transform="translate(0 0)">
      <path id="Shape" d="M19.819,10.872h4.027a1.208,1.208,0,0,0,1.208-1.208V5.637h.805a.805.805,0,0,0,.569-1.375L22.4.236a.805.805,0,0,0-1.139,0L17.236,4.263a.805.805,0,0,0,.569,1.375h.805V9.664a1.208,1.208,0,0,0,1.208,1.208Zm-2.013-6.04L21.832.806l4.031,4.027H24.651a.4.4,0,0,0-.4.4V9.664a.4.4,0,0,1-.4.4H19.819a.4.4,0,0,1-.4-.4V5.235a.4.4,0,0,0-.4-.4Z" transform="translate(-10.155 0)" fill="#131313"/>
      <path id="Shape-2" data-name="Shape" d="M14.805,20.637V15.4a.4.4,0,0,0-.805,0v5.235a.4.4,0,0,0,.805,0Z" transform="translate(-8.363 -8.96)" fill="#131313"/>
      <path id="Shape-3" data-name="Shape" d="M8.805,26.637V21.4A.4.4,0,1,0,8,21.4v5.235a.4.4,0,1,0,.805,0Z" transform="translate(-4.779 -12.544)" fill="#131313"/>
      <path id="Shape-4" data-name="Shape" d="M42.805,20.637V15.4a.4.4,0,0,0-.805,0v5.235a.4.4,0,0,0,.805,0Z" transform="translate(-25.088 -8.96)" fill="#131313"/>
      <path id="Shape-5" data-name="Shape" d="M48.805,26.637V21.4a.4.4,0,1,0-.805,0v5.235a.4.4,0,1,0,.805,0Z" transform="translate(-28.672 -12.544)" fill="#131313"/>
      <path id="Shape-6" data-name="Shape" d="M0,36.644v2.819c0,1.7,3.112,2.617,6.04,2.617,2.3,0,4.709-.569,5.637-1.636.929,1.067,3.336,1.636,5.637,1.636,2.928,0,6.04-.917,6.04-2.617V36.644c0-1.622-2.833-2.529-5.637-2.61V32.617c0-1.7-3.112-2.617-6.04-2.617a13.841,13.841,0,0,0-2.352.195.4.4,0,1,0,.138.794,13.009,13.009,0,0,1,2.214-.183c3,0,5.235.957,5.235,1.812,0,.345-.386.725-1.059,1.047a10.255,10.255,0,0,1-4.176.765A10.255,10.255,0,0,1,7.5,33.664c-.673-.322-1.059-.7-1.059-1.047,0-.362.438-.774,1.173-1.1a.4.4,0,1,0-.325-.737c-1.067.469-1.654,1.121-1.654,1.834v1.417C2.833,34.114,0,35.021,0,36.644Zm6.04,4.631c-3,0-5.235-.957-5.235-1.812V37.995a4.188,4.188,0,0,0,.713.421,11.073,11.073,0,0,0,4.521.846,11.068,11.068,0,0,0,4.524-.846,4.4,4.4,0,0,0,.64-.371h.07v1.418C11.274,40.318,9.036,41.274,6.04,41.274Zm11.274,0c-3,0-5.235-.957-5.235-1.812V38.045h.07a4.439,4.439,0,0,0,.644.373,11.073,11.073,0,0,0,4.52.843,11.073,11.073,0,0,0,4.521-.846,4.188,4.188,0,0,0,.713-.421v1.468C22.549,40.318,20.31,41.274,17.314,41.274Zm5.235-4.631c0,.345-.386.725-1.059,1.047a10.255,10.255,0,0,1-4.176.765,11.224,11.224,0,0,1-3.635-.548c2.188-.319,4.038-1.162,4.038-2.472v-.6C20.508,34.921,22.549,35.828,22.549,36.644ZM7.156,34.389a11.073,11.073,0,0,0,4.521.846,11.073,11.073,0,0,0,4.521-.846,4.188,4.188,0,0,0,.713-.421v1.468c0,.855-2.239,1.812-5.235,1.812s-5.235-.957-5.235-1.812V33.968A4.188,4.188,0,0,0,7.156,34.389Zm-1.518.451v.6c0,1.31,1.849,2.153,4.037,2.472a11.223,11.223,0,0,1-3.635.548,10.255,10.255,0,0,1-4.176-.765c-.673-.322-1.059-.7-1.059-1.047C.805,35.828,2.846,34.921,5.637,34.84Z" transform="translate(0 -17.92)" fill="#131313"/>
    </g>
  </g>
</svg>
