<svg xmlns="http://www.w3.org/2000/svg" xmlns:xlink="http://www.w3.org/1999/xlink" width="104" height="104" viewBox="0 0 104 104">
  <defs>
    <filter id="Rectangle_197" x="0" y="0" width="104" height="104" filterUnits="userSpaceOnUse">
      <feOffset input="SourceAlpha"/>
      <feGaussianBlur stdDeviation="3" result="blur"/>
      <feFlood flood-opacity="0.102"/>
      <feComposite operator="in" in2="blur"/>
      <feComposite in="SourceGraphic"/>
    </filter>
  </defs>
  <g id="Group_188" data-name="Group 188" transform="translate(-926.367 -540)">
    <g transform="matrix(1, 0, 0, 1, 926.37, 540)" filter="url(#Rectangle_197)">
      <rect id="Rectangle_197-2" data-name="Rectangle 197" width="60.811" height="60.811" rx="8" transform="translate(52 9) rotate(45)" fill="#fff"/>
    </g>
    <g id="ok" transform="translate(970.233 579.863)">
      <g id="Group_204" data-name="Group 204" transform="translate(4.772)">
        <g id="Group_203" data-name="Group 203" transform="translate(0 0)">
          <path id="Path_194" data-name="Path 194" d="M199.119,8.756A17.718,17.718,0,0,0,195.183.642,2,2,0,0,0,192.518.4a1.915,1.915,0,0,0-.716,1.985,1.875,1.875,0,0,0-2.457.311,1.744,1.744,0,0,0,.137,2.428l.436.4c-.154.015-.856.134-1.467.284a.381.381,0,1,0,.182.74c.569-.14,1.076-.222,1.293-.258a.919.919,0,0,1,.5.056,9.575,9.575,0,0,1,4.006,3.864,5.268,5.268,0,0,1,.7,2.025.381.381,0,1,0,.762,0,6.014,6.014,0,0,0-.738-2.3,15.953,15.953,0,0,0-2.461-7.385,1.15,1.15,0,0,1,.282-1.54,1.243,1.243,0,0,1,1.653.153,16.97,16.97,0,0,1,3.754,7.773.381.381,0,0,0,.741-.177Zm-6.364-4.569a15.212,15.212,0,0,1,1.451,4.327,10.773,10.773,0,0,0-2.281-2.2l-1.931-1.756a.978.978,0,0,1-.077-1.363,1.11,1.11,0,0,1,1.551-.11Z" transform="translate(-188.16 0)"/>
        </g>
      </g>
      <g id="Group_206" data-name="Group 206" transform="translate(8.295 10.207)">
        <g id="Group_205" data-name="Group 205" transform="translate(0)">
          <path id="Path_195" data-name="Path 195" d="M265.382,201.655c-.006-.044-.021-.159-.048-.334a.381.381,0,0,0-.753.118,12.137,12.137,0,0,1-.309,6.716,19.773,19.773,0,0,1-1.234,3.225c-.46.919-.223,1.638-.287,3.985a.666.666,0,0,1-.665.665h-4.163a.381.381,0,0,0,0,.762h4.163a1.428,1.428,0,0,0,1.427-1.427c.053-2.515-.144-2.987.236-3.7a21.155,21.155,0,0,0,1.242-3.257A12.28,12.28,0,0,0,265.382,201.655Z" transform="translate(-257.542 -201)"/>
        </g>
      </g>
      <g id="Group_208" data-name="Group 208" transform="translate(0 6.355)">
        <g id="Group_207" data-name="Group 207" transform="translate(0)">
          <path id="Path_196" data-name="Path 196" d="M103.138,134.153l-.105-2.976a1.745,1.745,0,0,0-.392-1.038l-1.367-1.669a1.3,1.3,0,0,0-1.526-.366,7.771,7.771,0,0,1-2.477.764,1.187,1.187,0,0,1-.708-2.173,4.248,4.248,0,0,1,1.256-.82.381.381,0,1,0-.314-.694,4.994,4.994,0,0,0-1.48.975,1.941,1.941,0,0,0,1.247,3.474,8.585,8.585,0,0,0,2.784-.828.538.538,0,0,1,.63.152l1.367,1.669a.979.979,0,0,1,.22.582l.105,2.976a.426.426,0,0,1-.146.337c-1.13.989-1.066.931-1.089.955a.844.844,0,0,1-1.1.111c-.257-.217-.7-.346-.8-.88a22.986,22.986,0,0,0-.8-3.058,2.436,2.436,0,0,0-3.125-1.627,1.5,1.5,0,0,0-1.1,1.1,4.753,4.753,0,0,0,.194,1.724,25.352,25.352,0,0,1,.51,3.72,3.1,3.1,0,0,0,.781,1.922c.831.932,1.437,1.8,2.9,3.748a1.558,1.558,0,0,1,.416,1.052,1.506,1.506,0,0,0,1.5,1.5h.57a.381.381,0,0,0,0-.762h-.57a.744.744,0,0,1-.743-.743,2.286,2.286,0,0,0-.567-1.507c-1.4-1.861-2.068-2.824-2.938-3.8a2.337,2.337,0,0,1-.588-1.449,26.229,26.229,0,0,0-.526-3.85c-.318-1.469-.329-1.667.431-1.949,1.305-.484,1.985.808,2.16,1.212a23.228,23.228,0,0,1,.749,2.9,2.128,2.128,0,0,0,1.116,1.363,1.6,1.6,0,0,0,2.066-.2l1.053-.921A1.185,1.185,0,0,0,103.138,134.153Z" transform="translate(-94.192 -125.147)"/>
        </g>
      </g>
    </g>
  </g>
</svg>
