<svg xmlns="http://www.w3.org/2000/svg" xmlns:xlink="http://www.w3.org/1999/xlink" width="104" height="104" viewBox="0 0 104 104">
  <defs>
    <filter id="Rectangle_199" x="0" y="0" width="104" height="104" filterUnits="userSpaceOnUse">
      <feOffset input="SourceAlpha"/>
      <feGaussianBlur stdDeviation="3" result="blur"/>
      <feFlood flood-opacity="0.102"/>
      <feComposite operator="in" in2="blur"/>
      <feComposite in="SourceGraphic"/>
    </filter>
  </defs>
  <g id="Group_201" data-name="Group 201" transform="translate(-1195.367 -540)">
    <g transform="matrix(1, 0, 0, 1, 1195.37, 540)" filter="url(#Rectangle_199)">
      <rect id="Rectangle_199-2" data-name="Rectangle 199" width="60.811" height="60.811" rx="8" transform="translate(52 9) rotate(45)" fill="#fff"/>
    </g>
    <g id="policy" transform="translate(1234.076 580.625)">
      <path id="Path_188" data-name="Path 188" d="M23.7,0H6.567a2.686,2.686,0,0,0-2.7,2.666L3.76,17.75H.417A.435.435,0,0,0,0,18.2v2.076a3.637,3.637,0,0,0,3.432,3.62v.025H17.857v-.028c.107,0,.172.028.246.028h.01a3.626,3.626,0,0,0,3.6-3.645V7.079h4.355a.439.439,0,0,0,.418-.451V2.818A2.814,2.814,0,0,0,23.7,0ZM3.619,23.059h0A2.78,2.78,0,0,1,.857,20.272V18.608H14.478v1.657a3.631,3.631,0,0,0,1.06,2.577,1.541,1.541,0,0,1,.226.218Zm17.24-2.787a2.77,2.77,0,0,1-2.747,2.787H18.1a2.787,2.787,0,0,1-2.767-2.794V18.2a.444.444,0,0,0-.429-.446H4.618l.11-15.081A1.827,1.827,0,0,1,6.567.858h15.1A2.927,2.927,0,0,0,20.86,2.83ZM25.632,2.826V6.221H21.718V2.829A1.987,1.987,0,0,1,23.684.858H23.7a1.956,1.956,0,0,1,1.936,1.965Zm0,0" transform="translate(0.001)"/>
      <path id="Path_189" data-name="Path 189" d="M164.329,61.261l2.212,1.512a.422.422,0,0,0,.479,0l2.205-1.512a3.332,3.332,0,0,0,1.332-2.542V55.66a.419.419,0,0,0-.229-.385l-3.368-1.657a.422.422,0,0,0-.375,0l-3.361,1.652a.419.419,0,0,0-.228.385v3.064A3.332,3.332,0,0,0,164.329,61.261Zm-.475-5.338,2.923-1.442,2.923,1.446v2.792a2.472,2.472,0,0,1-.958,1.832l-1.97,1.347-1.962-1.347a2.471,2.471,0,0,1-.956-1.833Zm0,0" transform="translate(-154.255 -50.701)"/>
      <path id="Path_190" data-name="Path 190" d="M202.529,118.568a.428.428,0,0,0,.3.129h0a.43.43,0,0,0,.3-.127l1.707-1.707a.429.429,0,0,0-.607-.607l-1.4,1.4-.56-.566a.429.429,0,1,0-.61.6Zm0,0" transform="translate(-190.734 -109.902)"/>
      <path id="Path_191" data-name="Path 191" d="M143.725,248h-10.3a.429.429,0,0,0,0,.858h10.3a.429.429,0,0,0,0-.858Zm0,0" transform="translate(-125.868 -234.701)"/>
      <path id="Path_192" data-name="Path 192" d="M143.725,285h-10.3a.429.429,0,1,0,0,.858h10.3a.429.429,0,1,0,0-.858Zm0,0" transform="translate(-125.868 -269.717)"/>
    </g>
  </g>
</svg>
